Coordinates
version=1
nRows=49
nColumns=12
inDegrees=yes

Units are S.I. units (second, meters, Newtons, ...)
Angles are in degrees

endheader
time	SC_y	SC_z	SC_x	AC_y	AC_z	AC_x	GH_y	GH_z	GH_yy	EL_x	PS_y
       0.0               -22.6          8.311           55.3          52.83          3.455          16.37          17.46          6.143          61.48          20.08          35.86
   0.01392              -22.61          8.313           55.3          52.83          3.452          16.37          17.45          6.139          61.48          20.08          35.87
   0.02785              -22.61          8.315          55.29          52.83          3.449          16.37          17.45          6.135          61.48          20.08          35.88
   0.04177              -22.61          8.317          55.28          52.82          3.446          16.37          17.44          6.131          61.49          20.08          35.89
   0.05569              -22.61          8.319          55.27          52.82          3.443          16.37          17.43          6.127          61.49          20.08          35.91
   0.06962              -22.61          8.322          55.26          52.82          3.439          16.37          17.42          6.122          61.49          20.08          35.92
   0.08354              -22.62          8.324          55.25          52.81          3.435          16.36          17.41          6.117          61.49          20.08          35.93
   0.09746              -22.62          8.327          55.24          52.81          3.431          16.36           17.4          6.111           61.5          20.08          35.95
    0.1114              -22.62           8.33          55.23          52.81          3.427          16.36          17.39          6.105           61.5          20.09          35.96
    0.1253              -22.62          8.333          55.21           52.8          3.422          16.36          17.38          6.099           61.5          20.09          35.98
    0.1392              -22.62          8.337           55.2           52.8          3.417          16.36          17.37          6.092          61.51          20.09           36.0
    0.1532              -22.63           8.34          55.18          52.79          3.411          16.36          17.35          6.084          61.51          20.09          36.02
    0.1671              -22.63          8.344          55.17          52.79          3.405          16.35          17.34          6.077          61.52          20.09          36.04
     0.181              -22.63          8.348          55.15          52.78          3.399          16.35          17.32          6.068          61.52          20.09          36.06
    0.1949              -22.64          8.353          55.13          52.78          3.392          16.35          17.31          6.059          61.53          20.09          36.08
    0.2089              -22.64          8.358          55.11          52.77          3.385          16.35          17.29          6.049          61.53          20.09          36.11
    0.2228              -22.65          8.363          55.09          52.76          3.376          16.34          17.27          6.038          61.54           20.1          36.14
    0.2367              -22.65          8.369          55.06          52.76          3.368          16.34          17.25          6.026          61.54           20.1          36.17
    0.2506              -22.66          8.376          55.04          52.75          3.358          16.34          17.22          6.013          61.55           20.1          36.21
    0.2645              -22.66          8.383          55.01          52.74          3.347          16.33           17.2          5.998          61.56           20.1          36.24
    0.2785              -22.67           8.39          54.97          52.73          3.336          16.33          17.17          5.983          61.57           20.1          36.28
    0.2924              -22.68          8.399          54.94          52.72          3.323          16.32          17.14          5.966          61.58          20.11          36.33
    0.3063              -22.68          8.408           54.9           52.7          3.309          16.32           17.1          5.947          61.59          20.11          36.38
    0.3202              -22.69          8.418          54.86          52.69          3.293          16.31          17.06          5.926           61.6          20.11          36.43
    0.3342               -22.7           8.43          54.81          52.67          3.275           16.3          17.02          5.902          61.61          20.12           36.5
    0.3481              -22.71          8.443          54.76          52.66          3.256           16.3          16.97          5.876          61.63          20.12          36.57
     0.362              -22.72          8.457           54.7          52.64          3.234          16.29          16.92          5.847          61.64          20.13          36.64
    0.3759              -22.74          8.474          54.63          52.62           3.21          16.28          16.86          5.814          61.66          20.13          36.73
    0.3899              -22.75          8.492          54.55          52.59          3.182          16.27          16.79          5.777          61.68          20.14          36.83
    0.4038              -22.77          8.513          54.47          52.56           3.15          16.26          16.72          5.734           61.7          20.14          36.94
    0.4177              -22.79          8.537          54.37          52.53          3.114          16.24          16.63          5.686          61.73          20.15          37.06
    0.4316              -22.81          8.564          54.25           52.5          3.073          16.23          16.53          5.631          61.76          20.16          37.21
    0.4455              -22.83          8.595          54.12          52.45          3.025          16.21          16.41          5.567          61.79          20.17          37.38
    0.4595              -22.86          8.632          53.97          52.41           2.97          16.19          16.27          5.493          61.84          20.18          37.57
    0.4734               -22.9          8.675          53.79          52.35          2.905          16.17          16.12          5.406          61.88          20.19           37.8
    0.4873              -22.94          8.725          53.58          52.28          2.829          16.14          15.93          5.303          61.94          20.21          38.07
    0.5012              -22.99          8.785          53.33           52.2          2.738           16.1          15.71          5.182          62.01          20.23          38.39
    0.5152              -23.05          8.857          53.04          52.11          2.629          16.06          15.44          5.036          62.09          20.25          38.77
    0.5291              -23.12          8.944          52.67          51.99          2.498          16.02          15.12          4.859          62.18          20.28          39.24
     0.543               -23.2           9.05          52.23          51.85          2.337          15.96          14.73          4.644           62.3          20.31           39.8
    0.5569              -23.31          9.182          51.69          51.67          2.139          15.88          14.24          4.377          62.45          20.35           40.5
    0.5709              -23.44          9.345          51.01          51.45          1.891          15.79          13.64          4.046          62.63           20.4          41.37
    0.5848              -23.61          9.551          50.15          51.18           1.58          15.67          12.88          3.628          62.86          20.47          42.47
    0.5987              -23.82          9.813          49.07          50.83          1.183          15.53          11.91          3.096          63.15          20.55          43.87
    0.6126              -24.09          10.15          47.67          50.38         0.6762          15.34          10.67          2.416          63.52          20.66          45.66
    0.6266              -24.44          10.58          45.89          49.81        0.02544           15.1          9.081          1.543          63.99          20.79          47.95
    0.6405              -24.89          11.13           43.6          49.08        -0.8058          14.79           7.05         0.4281           64.6          20.96          50.88
    0.6544              -25.45          11.82          40.73          48.16         -1.851           14.4          4.497        -0.9739          65.37          21.18          54.56
    0.6683              -26.13          12.66          37.24          47.04         -3.125          13.93          1.385         -2.682          66.31          21.44          59.05
